<svg width="24" height="23" viewBox="0 0 24 23" fill="none" xmlns="http://www.w3.org/2000/svg">
<path d="M11.99 0.201722C5.77986 0.199211 0.75 5.22655 0.75 11.4316C0.75 16.3384 3.89648 20.5095 8.27846 22.0413C8.86858 22.1894 8.77818 21.7701 8.77818 21.4838V19.5377C5.37054 19.9369 5.23242 17.6819 5.00391 17.3052C4.54185 16.5167 3.4495 16.3158 3.77595 15.9392C4.5519 15.5399 5.34291 16.0396 6.25949 17.3931C6.92243 18.375 8.21568 18.2093 8.87109 18.046C9.01423 17.4559 9.32059 16.9286 9.74247 16.5192C6.21177 15.8864 4.74023 13.7319 4.74023 11.1705C4.74023 9.92745 5.14955 8.78487 5.95313 7.86327C5.44085 6.34402 6.00084 5.04324 6.07617 4.84988C7.53516 4.7193 9.0519 5.89452 9.16992 5.98744C9.9986 5.76394 10.9453 5.64592 12.005 5.64592C13.0698 5.64592 14.019 5.76897 14.8552 5.99497C15.139 5.77901 16.5452 4.76952 17.9012 4.89257C17.9741 5.08593 18.5215 6.35658 18.0393 7.85574C18.853 8.77985 19.2673 9.93247 19.2673 11.178C19.2673 13.7444 17.7857 15.9015 14.245 16.5243C14.5483 16.8225 14.7891 17.1782 14.9533 17.5706C15.1176 17.9629 15.202 18.3841 15.2017 18.8094V21.6345C15.2218 21.8605 15.2017 22.084 15.5784 22.084C20.0257 20.5848 23.2274 16.3836 23.2274 11.4341C23.2274 5.22655 18.195 0.201722 11.99 0.201722Z" fill="black"/>
</svg>
