<svg width="144" height="144" viewBox="0 0 144 144" fill="none" xmlns="http://www.w3.org/2000/svg">
<rect width="144" height="144" rx="4" fill="black"/>
<path d="M41.8576 82.0102L36.0806 86.1536L41.8576 88.2701V82.0102ZM43.3234 79.7428V90.3539L33 86.5717L41.7579 80.2902L43.3234 79.7428Z" fill="white"/>
<path d="M48.2229 78.4759L43.3343 81.0696L43.4647 91.5465L48.2229 78.4759ZM48.9374 76.4509L50.4968 76.5092L43.1911 96.578H42.0615L41.8577 80.2071L48.9374 76.4509Z" fill="white"/>
<path d="M49.9984 77.9139L43.529 95.8022V109.868H55.0548L67.2168 77.9139H49.9984ZM48.9662 76.4634H69.3351L56.0691 111.319H42.0632V95.5505L48.9662 76.4634Z" fill="white"/>
<path d="M46.2261 111.624L48.8594 122.388L52.3668 111.624H46.2261ZM44.1802 110.173H53.5492L54.0739 111.111L48.6585 127.731L44.5441 110.913L44.1802 110.173Z" fill="white"/>
<path d="M64.9452 88.1127L60.6331 99.2674L74.2565 102.205L64.9452 88.1127ZM64.6015 84.942L77.4426 104.377L58.6548 100.325L64.6015 84.942Z" fill="white"/>
<path d="M87.5061 76.1437L68.7953 77.8934L65.5642 86.558L76.432 102.656L89.5718 109.748L87.5061 76.1437ZM88.8771 74.5585L91.1957 112.277L75.4135 103.759L63.9305 86.7492L67.7394 76.5351L88.8771 74.5585Z" fill="white"/>
<path d="M87.0683 110.136L90.0466 117.839L89.5894 111.524L87.0683 110.136ZM85.309 107.507L90.9948 110.638L91.8905 123.011L90.3537 122.692L84.9138 108.622L85.309 107.507Z" fill="white"/>
<path d="M91.7459 120.842L104.153 86.8015L106.052 62.8632L97.6739 40.8917L90.4929 29.3261L85.9543 28.396L91.1656 110.921L91.1658 110.924L91.166 110.928L91.7459 120.842ZM90.6962 127.997L89.7027 111.011L84.4628 28.0328L85.0323 26.7257L91.4102 28.0328L98.9959 40.2502L107.538 62.654L105.599 87.1098L90.6962 127.997Z" fill="white"/>
<path d="M107.257 65.3136L105.958 82.4285L110.394 71.5981L107.257 65.3136ZM106.197 59.9148L112 71.5395L103.794 91.5732L106.197 59.9148Z" fill="white"/>
<path d="M105.012 26.6037L92.4477 29.7121L98.1743 38.8664L107.794 29.4955L105.012 26.6037ZM105.485 24.9916L109.85 29.5284L97.8943 41.1745L90.1449 28.7866L105.485 24.9916Z" fill="white"/>
<path d="M91.6062 19.3532L88.438 21.7798L86.4151 26.9585L90.3374 27.8391L91.6062 19.3532ZM93.5893 16.0001L91.5558 29.6001L84.4362 28.0017L87.218 20.8799L93.5893 16.0001Z" fill="white"/>
</svg>
