<svg width="492" height="287" viewBox="0 0 492 287" fill="none" xmlns="http://www.w3.org/2000/svg">
<g clip-path="url(#clip0_2019_181)">
<path d="M312.897 205.817C312.265 206.334 311.486 206.637 310.672 206.68C309.858 206.724 309.051 206.507 308.367 206.061C306.245 204.845 304.398 203.198 302.946 201.225C301.347 199.296 299.841 197.273 298.184 195.413C296.921 193.946 295.252 192.89 293.388 192.379C292.681 192.193 291.859 191.67 291.326 192.379C290.793 193.089 291.569 193.844 291.975 194.495C293.01 195.939 294.269 197.206 295.705 198.25C298.508 200.652 301.297 203.078 304.069 205.526C304.925 206.235 305.561 207.175 305.9 208.235C306.769 211.141 304.903 213.524 301.88 213.152C299.082 212.717 296.528 211.3 294.674 209.153C292.647 207.003 290.805 204.689 288.974 202.365C287.816 200.958 286.785 200.551 285.255 201.749C283.726 202.946 283.9 204.073 285.047 205.492C287.364 208.27 289.611 211.118 291.87 213.942C293.84 216.407 293.851 218.708 291.951 220.696C290.214 222.498 287.584 222.428 285.197 220.522C282.067 217.929 279.122 215.121 276.381 212.117C271.586 207.095 268.813 200.47 268.596 193.519C268.237 187.242 267.635 180.976 267.264 174.688C267.294 174.359 267.254 174.028 267.146 173.717C267.039 173.405 266.866 173.12 266.641 172.88C266.415 172.641 266.141 172.452 265.837 172.327C265.533 172.201 265.206 172.142 264.877 172.153C260.545 171.689 256.224 171.165 251.902 170.712C249.516 170.468 249.006 170.956 249.052 173.397C249.307 185.99 249.574 198.579 249.852 211.164C250.021 212.934 249.904 214.72 249.504 216.453C248.751 218.976 246.469 220.708 244.303 220.429C242.136 220.15 240.503 218.197 240.26 215.535C240.26 215.023 240.26 214.5 240.26 213.977C240.26 196.646 240.387 179.302 239.854 161.971C239.773 159.274 238.545 157.867 236.124 157.821C233.702 157.774 232.648 159.088 232.648 161.924C232.648 190.977 232.648 220.037 232.648 249.105C232.648 251.43 232.057 253.348 229.868 254.464C229.32 254.771 228.712 254.952 228.086 254.994C227.46 255.036 226.832 254.938 226.249 254.706C225.666 254.475 225.141 254.116 224.713 253.656C224.285 253.196 223.964 252.646 223.774 252.046C223.444 250.983 223.306 249.869 223.369 248.757V164.237C223.369 162.901 223.473 161.541 222.21 160.564C221.922 160.275 221.559 160.072 221.161 159.98C220.764 159.887 220.349 159.908 219.963 160.041C219.627 160.204 219.349 160.466 219.166 160.792C218.984 161.119 218.906 161.494 218.943 161.866C218.943 162.459 218.943 163.029 218.943 163.645C218.943 202.841 218.943 242.038 218.943 281.234C218.943 284.722 217.982 286.198 215.213 286.872C214.756 287.012 214.275 287.055 213.8 287C213.325 286.945 212.867 286.792 212.454 286.55C212.041 286.309 211.681 285.985 211.399 285.599C211.116 285.212 210.916 284.771 210.811 284.303C210.544 283.225 210.442 282.111 210.509 281.002C210.448 250.004 210.386 219.034 210.324 188.09C210.324 179.349 209.93 170.596 210.046 161.866C210.116 156.891 208.181 153.869 203.512 152.148C197.152 149.824 191.557 145.836 185.231 143.314C180.597 141.454 175.743 140.175 171.005 138.606C168.311 137.801 165.846 136.367 163.811 134.422C161.489 132.242 158.595 130.774 155.469 130.19C145.588 127.866 135.474 127.342 125.441 126.238C111.655 124.727 97.8577 123.309 84.0716 121.867C70.6447 120.473 57.2178 119.124 43.7792 117.729L4.69172 113.638L4.03138 113.533C1.251 113.08 -0.185532 111.499 -0.000173125 109.174C0.185186 106.849 2.08511 105.454 4.77281 105.687C8.66535 106.001 12.5579 106.407 16.4504 106.849L53.1978 110.708C66.8525 112.072 80.4996 113.483 94.1389 114.939C105.956 116.187 117.768 117.415 129.577 118.624C137.725 119.454 145.873 120.259 154.021 121.042C155.883 121.308 157.781 121.131 159.562 120.526C161.343 119.92 162.957 118.902 164.274 117.555C169.221 112.673 179.334 112.382 185.729 116.544C187.212 117.508 188.672 118.485 190.155 119.461C192.947 121.298 196.028 121.263 199.121 120.624C201.438 120.182 202.122 118.927 201.496 116.497C200.546 112.859 199.411 109.267 198.345 105.663C188.691 72.9918 179.037 40.3125 169.383 7.62541C168.821 6.16682 168.821 4.55058 169.383 3.09199C169.824 2.15119 170.526 1.35855 171.406 0.809847C172.286 0.261142 173.306 -0.0201466 174.341 -2.92785e-05C175.381 0.0672498 176.37 0.477586 177.154 1.16713C177.937 1.85668 178.472 2.78677 178.674 3.81269C181.431 13.3135 184.204 22.8027 186.992 32.2802C194.986 59.5814 202.979 86.9137 210.973 114.277C212.004 117.764 214.228 119.531 217.669 119.636C220.484 119.717 221.758 118.136 220.959 115.37C217.87 104.73 214.78 94.1013 211.691 83.4845C207.536 69.1791 203.365 54.8737 199.179 40.5682C198.102 36.895 198.959 35.4536 202.736 34.5469C204.052 34.0666 205.45 33.857 206.849 33.9308C209.895 34.4307 211.483 36.3487 212.34 39.2663C219.522 64.0645 226.732 88.8626 233.969 113.661C234.537 115.625 235.371 117.276 237.537 117.729C240.862 118.415 243.179 115.404 242.171 111.72C239.514 101.886 236.85 92.0593 234.177 82.2408C232.648 76.6147 231.107 71.0002 229.601 65.3741C228.57 61.5149 230.088 58.5973 233.505 57.7487C237.34 56.7955 240.016 58.481 241.024 62.5262C244.886 78.0251 248.747 93.5588 252.609 109.127C253.012 110.93 253.598 112.687 254.358 114.37C254.952 115.737 255.936 116.898 257.185 117.706C258.104 118.336 259.174 118.707 260.284 118.783C261.394 118.859 262.504 118.635 263.499 118.136C265.549 117.125 265.932 115.207 265.885 113.068C265.746 107.965 264.993 102.885 265.804 97.7706C266.522 93.3039 267.852 88.958 269.755 84.8562C270.531 83.1823 271.527 81.5898 273.601 81.1713C274.041 81.0289 274.508 80.9925 274.964 81.0649C275.421 81.1374 275.854 81.3167 276.228 81.5884C276.603 81.8601 276.909 82.2165 277.12 82.6287C277.332 83.0409 277.444 83.4974 277.447 83.9611C277.525 85.8175 277.126 87.6628 276.289 89.3199C274.288 94.0093 272.961 98.9603 272.35 104.024C272.109 105.488 272.298 106.991 272.894 108.349C273.117 108.945 273.527 109.453 274.061 109.796C274.596 110.14 275.227 110.301 275.86 110.255C277.204 110.185 277.667 109.093 277.968 108.023C278.496 105.638 278.76 103.201 278.756 100.758C278.831 96.6128 279.293 92.4837 280.135 88.4248C280.269 87.507 280.592 86.6271 281.082 85.8408C281.573 85.0545 282.221 84.3788 282.985 83.8565C285.475 82.357 287.931 83.3334 288.557 86.1813C289.345 89.8197 288.557 93.3883 287.874 96.9569C287.19 100.526 286.425 104.048 285.881 107.628C285.406 110.743 286.159 111.906 288.453 112.278C291.106 112.754 292.345 111.824 293.029 108.79C294.187 103.641 293.932 98.3286 294.732 93.1326C294.873 91.5882 295.212 90.0685 295.74 88.6108C296.011 87.7499 296.588 87.0193 297.361 86.5583C298.135 86.0973 299.05 85.9383 299.933 86.1116C300.839 86.1598 301.69 86.5611 302.305 87.23C302.919 87.8989 303.249 88.7824 303.224 89.6918C303.409 96.6663 303.432 103.641 301.567 110.418C299.702 117.195 295.867 119.903 288.395 120.345C287.236 120.345 286.182 120.449 285.07 120.449C284.741 120.396 284.403 120.457 284.112 120.622C283.822 120.786 283.596 121.045 283.471 121.356C283.147 122.263 283.83 122.739 284.444 123.111C286.564 124.413 289.009 124.727 291.395 125.215C296.204 126.03 301.085 126.342 305.958 126.145H366.871C367.682 126.145 368.505 126.145 369.316 126.145C372.455 126.145 374.54 127.912 374.459 130.388C374.378 132.864 372.328 134.515 369.153 134.515C349.953 134.515 330.753 134.515 311.553 134.515C309.746 134.515 308.275 134.91 308.078 137.049C307.927 138.85 309.236 139.955 311.379 140.024C311.82 140.024 312.271 140.024 312.712 140.024H372.953C374.062 139.996 375.169 140.121 376.243 140.396C376.379 140.541 376.455 140.732 376.455 140.931C376.455 141.13 376.379 141.321 376.243 141.466C375.381 141.901 374.407 142.063 373.451 141.931C352.923 141.931 332.391 141.931 311.854 141.931C309.711 141.931 307.927 141.443 306.792 139.466C306.376 138.825 306.135 138.085 306.092 137.321C306.049 136.557 306.205 135.795 306.546 135.111C306.887 134.426 307.399 133.843 308.034 133.418C308.668 132.993 309.402 132.742 310.163 132.69C311.118 132.608 312.078 132.585 313.036 132.62H366.871C368.039 132.708 369.213 132.602 370.347 132.306C371.308 131.98 372.142 131.446 372.084 130.295C372.038 129.808 371.83 129.351 371.494 128.997C371.158 128.643 370.713 128.413 370.231 128.342C369.144 128.126 368.033 128.059 366.929 128.144H299.574C294.992 128.105 290.438 127.405 286.055 126.064C285.052 125.799 284.1 125.366 283.24 124.785C282.588 124.421 282.07 123.855 281.764 123.173C281.457 122.49 281.377 121.727 281.537 120.996C281.716 120.265 282.139 119.617 282.735 119.161C283.331 118.704 284.065 118.466 284.815 118.485C286.727 118.345 288.638 118.276 290.538 117.997C295.659 117.288 298.566 114.312 299.737 109.395C301.02 103.285 301.484 97.0296 301.115 90.7961C301.115 89.7035 300.825 88.5875 299.563 88.4713C298.3 88.3551 297.651 89.4245 297.362 90.5288C296.75 93.0467 296.362 95.614 296.203 98.2007C295.937 101.304 295.856 104.42 295.346 107.5C295.189 108.451 294.957 109.388 294.651 110.301C293.492 113.789 291.326 114.951 287.816 114.172C284.769 113.475 283.182 110.987 283.68 107.616C284.294 103.362 285.383 99.1888 286.124 94.9576C286.496 92.6912 286.667 90.396 286.634 88.0993C286.634 87.1113 286.564 85.8907 285.209 85.6699C283.854 85.449 283.309 86.3208 282.765 87.2508C282.31 88.1008 282.012 89.0262 281.884 89.9824C281.151 93.9163 280.763 97.907 280.726 101.909C280.73 104.132 280.434 106.345 279.845 108.488C279.127 110.941 277.748 112.068 275.663 112.103C274.579 112.143 273.512 111.823 272.628 111.193C271.744 110.562 271.092 109.656 270.774 108.616C270.212 107.078 270.037 105.425 270.264 103.804C270.83 98.8851 272.086 94.0716 273.995 89.5058C274.642 88.1692 275.087 86.7431 275.315 85.2747C275.385 84.6818 275.315 84.0309 274.771 83.7054C274.468 83.5538 274.124 83.508 273.792 83.5754C273.46 83.6428 273.161 83.8195 272.941 84.0774C272.022 84.9392 271.333 86.0182 270.936 87.2159C268.422 94.0276 266.627 100.921 267.808 108.29C267.959 109.836 267.982 111.391 267.878 112.94C267.878 116.927 266.499 119.275 263.673 120.252C261.984 120.839 260.155 120.888 258.437 120.391C256.719 119.893 255.197 118.874 254.08 117.474C252.794 115.836 251.852 113.954 251.312 111.94C249.4 104.629 247.419 97.3405 245.751 89.9708C243.747 81.1597 241.418 72.43 239.182 63.677C239.015 62.9577 238.758 62.2625 238.418 61.6079C237.991 60.8002 237.281 60.1797 236.425 59.8662C235.57 59.5528 234.628 59.5687 233.784 59.9108C232.955 60.1399 232.248 60.6854 231.815 61.4306C231.382 62.1757 231.257 63.0613 231.467 63.8979C232.185 67.3851 233.239 70.7794 234.143 74.2201C237.282 86.1116 240.572 97.9566 243.735 109.836C244.157 111.182 244.356 112.588 244.326 113.998C244.303 115.233 243.888 116.428 243.142 117.41C242.397 118.392 241.358 119.111 240.178 119.461C238.981 119.883 237.68 119.904 236.469 119.523C235.258 119.142 234.202 118.378 233.459 117.346C232.758 116.387 232.247 115.301 231.953 114.149C226.555 95.4342 221.063 76.7425 215.63 58.0277C213.904 52.0529 212.212 46.0664 210.405 40.1149C209.247 36.2557 205.389 34.8956 201.96 37.0577C200.801 37.7668 200.952 38.7897 201.184 39.8126C201.809 42.6373 202.678 45.3922 203.501 48.1588C209.919 70.0587 216.244 91.9702 222.639 113.87C223.913 118.241 222.407 121.216 218.723 121.705C216.956 121.864 215.18 121.51 213.607 120.686C212.034 119.861 210.729 118.601 209.849 117.055C208.853 114.811 208.077 112.475 207.532 110.081C200.357 85.3831 193.163 60.7012 185.949 36.0348C183.053 26.0845 180.076 16.1459 177.261 6.16076C177.088 5.51745 176.867 4.888 176.6 4.27765C175.952 2.85951 175.002 1.95283 173.31 2.38292C172.592 2.60766 171.978 3.08276 171.578 3.72232C171.179 4.36189 171.021 5.12373 171.132 5.87016C171.296 6.89377 171.548 7.90113 171.885 8.88081C181.744 42.1142 191.417 75.4058 201.311 108.628C201.983 110.952 202.794 113.126 203.35 115.439C204.369 119.705 202.748 122.077 198.438 122.937C196.629 123.301 194.763 123.274 192.965 122.857C191.167 122.44 189.478 121.643 188.012 120.519C185.031 118.183 181.514 116.636 177.782 116.021C172.928 115.37 168.514 116.021 164.934 119.74C162.003 122.797 158.157 123.611 154.126 123.227C143.908 122.321 133.713 121.147 123.507 120.089L90.4896 116.602C75.5142 115.013 60.5388 113.463 45.5633 111.952C33.3528 110.639 21.1655 109.267 8.97814 108.104C7.5971 107.86 6.19822 107.732 4.79598 107.721C3.63749 107.814 2.479 107.988 2.3284 109.418C2.17779 110.848 3.34787 111.15 4.39051 111.348C7.86599 111.975 11.4226 112.243 14.9444 112.603C24.4093 113.556 33.8741 114.637 43.3506 115.556C54.0667 116.602 64.7711 117.811 75.4987 118.892C85.9252 119.949 96.3516 121.077 106.778 122.158C117.645 123.32 128.5 124.483 139.366 125.552C145.612 126.12 151.808 127.149 157.902 128.633C160.088 129.082 162.113 130.114 163.764 131.62C166.82 134.561 170.61 136.621 174.735 137.583C182.663 139.703 190.289 142.828 197.43 146.883C200.086 148.342 202.816 149.661 205.609 150.835C209.93 152.671 212.154 155.856 212.062 160.692C211.807 175.211 212.629 189.752 212.537 204.236C212.386 229.205 212.537 254.22 212.537 279.142C212.451 280.329 212.529 281.522 212.768 282.687C213.058 283.722 213.498 284.733 214.796 284.629C215.316 284.572 215.803 284.34 216.175 283.971C216.547 283.601 216.784 283.116 216.846 282.594C217.018 281.495 217.068 280.38 216.997 279.27V164.819C216.968 163.784 216.991 162.748 217.066 161.715C217.229 160.146 217.785 158.774 219.383 158.228C220.157 157.951 220.996 157.914 221.792 158.121C222.587 158.328 223.302 158.77 223.844 159.39C224.678 160.242 225.187 161.361 225.28 162.552C225.373 163.586 225.28 164.633 225.28 165.667C225.28 192.713 225.28 219.758 225.28 246.804C225.182 248.06 225.287 249.324 225.593 250.547C225.692 251.095 225.976 251.593 226.398 251.955C226.821 252.317 227.355 252.522 227.91 252.534C228.471 252.525 229.011 252.324 229.443 251.965C229.875 251.605 230.172 251.109 230.285 250.558C230.592 249.332 230.698 248.064 230.598 246.804V163.9C230.598 163.087 230.598 162.273 230.598 161.459C230.69 157.972 232.625 155.903 235.811 155.833C236.566 155.788 237.322 155.9 238.031 156.163C238.74 156.426 239.387 156.833 239.932 157.36C240.476 157.887 240.906 158.521 241.193 159.222C241.481 159.924 241.621 160.678 241.603 161.436C242.542 178.314 241.8 195.146 242.044 212.094C241.981 213.261 242.055 214.431 242.264 215.581C242.576 216.744 243.098 217.906 244.511 217.999C245.925 218.092 246.643 217.127 247.129 215.988C247.706 214.773 247.916 213.415 247.732 212.082C247.367 209.437 247.263 206.762 247.419 204.097C247.674 194.46 246.678 184.859 246.956 175.222C246.956 174.478 246.956 173.734 246.956 173.002C247.106 169.887 248.427 168.55 251.59 168.655C254.752 168.759 258.181 169.364 261.495 169.678C262.445 169.771 263.395 169.898 264.356 169.968C267.426 170.201 268.701 171.479 268.99 174.513C269.681 179.943 270.068 185.407 270.149 190.88C270.149 201.563 275.339 209.281 282.892 215.918C283.968 216.935 285.097 217.893 286.275 218.79C287.514 219.661 288.835 220.091 290.109 218.917C291.384 217.743 290.92 216.383 290.04 215.151C287.827 212.082 285.093 209.444 282.973 206.317C281.282 203.818 281.815 201.47 284.271 199.831C286.321 198.482 288.233 198.726 289.994 200.679C291.488 202.33 292.797 204.166 294.176 205.863C295.581 207.594 297.323 209.018 299.296 210.048C300.121 210.552 301.077 210.799 302.042 210.757C303.455 210.629 304 209.781 303.49 208.432C302.909 207.314 302.081 206.344 301.069 205.596C298.045 202.76 294.674 200.342 291.731 197.459C290.801 196.602 290.018 195.597 289.414 194.483C289.1 193.997 288.94 193.425 288.955 192.845C288.97 192.265 289.16 191.703 289.5 191.234C289.84 190.764 290.314 190.409 290.859 190.215C291.404 190.022 291.995 189.998 292.554 190.148C294.893 190.582 297.053 191.698 298.763 193.356C301.101 195.828 303.305 198.424 305.367 201.132C307.035 203.085 308.842 204.748 311.738 204.457C312.688 204.643 313.349 204.852 312.897 205.817Z" fill="#979797" fill-opacity="0.5"/>
<path d="M375.351 146.708C374.392 147.061 373.355 147.145 372.351 146.952C353.043 146.952 333.769 146.952 314.531 146.952C313.94 146.952 313.372 146.952 312.758 146.952C312.367 146.955 311.981 147.036 311.621 147.189C311.26 147.342 310.934 147.564 310.66 147.844C310.385 148.123 310.169 148.454 310.022 148.818C309.875 149.182 309.801 149.571 309.804 149.963C309.771 150.718 310.02 151.458 310.502 152.038C310.984 152.619 311.665 152.998 312.411 153.102C312.919 153.193 313.436 153.22 313.951 153.183C355.819 153.288 397.676 152.741 439.532 152.125L485.373 151.451C486.923 151.303 488.483 151.576 489.892 152.241C492.614 153.753 492.672 156.496 490.065 158.193C488.373 159.129 486.44 159.534 484.516 159.355C473.742 159.355 462.957 159.355 452.183 159.355C406.92 159.193 361.658 159.727 316.396 160.192C315.295 160.192 314.183 160.274 313.083 160.332C312.225 160.332 311.634 160.878 311.716 161.715C311.718 161.902 311.759 162.086 311.834 162.257C311.91 162.427 312.02 162.581 312.156 162.708C312.292 162.835 312.453 162.933 312.628 162.996C312.803 163.059 312.989 163.086 313.175 163.075C313.917 163.075 314.658 163.075 315.388 163.075L408.867 162.819C412.342 162.819 413.929 163.842 413.999 166.051C414.068 168.259 412.504 169.538 408.959 169.538L317.693 169.747C316.801 169.747 315.921 169.747 315.029 169.747C314.768 169.722 314.506 169.755 314.26 169.844C314.014 169.932 313.79 170.074 313.605 170.26C313.42 170.446 313.278 170.67 313.19 170.917C313.102 171.164 313.069 171.427 313.094 171.689C313.094 172.851 313.917 173.362 315.04 173.374H316.361C335.414 173.374 354.464 173.374 373.509 173.374C374.684 173.359 375.855 173.516 376.985 173.839C377.565 173.984 378.087 174.305 378.479 174.759C378.871 175.212 379.114 175.776 379.174 176.373C379.2 176.934 379.07 177.491 378.8 177.983C378.531 178.476 378.131 178.884 377.645 179.163C376.496 179.841 375.158 180.123 373.834 179.965C346.146 179.965 318.458 179.965 290.77 179.965C290.249 179.965 289.739 179.965 289.218 179.965C288.852 179.892 288.472 179.958 288.152 180.152C287.833 180.345 287.597 180.652 287.491 181.011C287.395 181.374 287.428 181.76 287.584 182.102C287.741 182.443 288.011 182.719 288.349 182.883C290.034 184.074 291.859 185.054 293.782 185.8C297.35 187.16 301.069 188.125 304.475 189.915C306.712 191.053 308.763 192.527 310.557 194.286C310.789 195.716 309.885 195.448 309.039 195.332C304.233 191.997 298.92 189.465 293.307 187.834C291.273 187.146 289.353 186.159 287.607 184.905C286.136 183.859 285.082 182.522 285.615 180.581C286.148 178.64 287.688 178.035 289.542 177.977C290.573 177.977 291.604 177.977 292.635 177.977H371.992C373.158 178.068 374.331 177.974 375.467 177.698C375.965 177.535 376.475 177.222 376.429 176.617C376.383 176.013 375.884 175.978 375.467 175.838C373.955 175.451 372.392 175.302 370.833 175.397H317.659C316.626 175.437 315.593 175.402 314.565 175.292C313.648 175.24 312.782 174.846 312.139 174.187C311.496 173.528 311.122 172.652 311.09 171.73C311.058 170.808 311.371 169.907 311.967 169.205C312.562 168.503 313.399 168.049 314.311 167.934C315.479 167.748 316.663 167.689 317.844 167.76C340.956 167.76 364.068 167.76 387.18 167.76C394.409 167.76 401.626 167.144 408.855 167.329C409.302 167.343 409.749 167.304 410.187 167.213C410.709 167.109 411.242 166.958 411.253 166.307C411.265 165.656 410.767 165.458 410.234 165.342C409.21 165.191 408.174 165.144 407.141 165.202H316.384C315.13 165.28 313.871 165.218 312.631 165.016C311.924 164.934 311.266 164.617 310.76 164.115C310.254 163.614 309.93 162.957 309.839 162.25C309.735 161.506 309.881 160.749 310.255 160.098C310.628 159.448 311.208 158.941 311.901 158.658C312.502 158.367 313.149 158.182 313.812 158.112C314.547 158.034 315.286 158.003 316.025 158.019C341.72 158.239 367.404 157.763 393.088 157.426C423.73 157.019 454.361 157.426 485.003 157.112C486.033 157.21 487.073 157.083 488.05 156.74C488.675 156.461 489.289 156.101 489.312 155.333C489.336 154.566 488.617 154.276 488.015 154.031C487.026 153.724 485.99 153.595 484.956 153.648C471.147 153.346 457.35 154.031 443.552 154.229C436.253 154.334 428.943 154.31 421.645 154.543C405.113 155.066 388.57 154.543 372.05 155.078C353.375 155.624 334.7 155.171 316.025 155.415C314.77 155.492 313.509 155.418 312.272 155.194C311.1 154.98 310.031 154.382 309.233 153.495C308.434 152.608 307.951 151.48 307.858 150.289C307.826 149.129 308.185 147.992 308.877 147.062C309.568 146.132 310.552 145.462 311.669 145.162C312.792 144.805 313.967 144.64 315.145 144.674H371.876C372.908 144.556 373.952 144.746 374.877 145.22C375.101 145.387 375.268 145.62 375.353 145.887C375.438 146.154 375.438 146.442 375.351 146.708Z" fill="#979797" fill-opacity="0.5"/>
<path d="M375.351 146.708L374.923 145.685C378.109 144.593 381.445 144.779 384.724 144.686C391.281 144.488 397.849 144.686 404.418 144.616C405.151 144.662 405.886 144.662 406.619 144.616C407.395 144.511 408.438 144.616 408.403 143.454C408.369 142.291 407.407 142.291 406.596 142.175C405.715 142.084 404.828 142.057 403.943 142.093C395.834 142.093 387.724 142.093 379.615 142.093C378.456 142.093 377.228 142.326 376.232 141.443V140.513C378.34 139.862 380.53 140.327 382.65 140.257C390.817 139.99 398.996 140.152 407.175 140.129C407.911 140.069 408.647 140.235 409.286 140.604C409.926 140.974 410.438 141.53 410.755 142.198C411.017 142.768 411.106 143.402 411.011 144.022C410.917 144.642 410.642 145.221 410.222 145.685C409.881 146.124 409.44 146.474 408.936 146.707C408.432 146.939 407.88 147.047 407.326 147.022C398.927 147.022 390.528 147.15 382.14 146.952C379.904 146.836 377.668 146.546 375.351 146.708Z" fill="#979797" fill-opacity="0.5"/>
<path d="M309.387 195.076C309.966 195.076 310.545 195.181 310.603 194.297C312.02 195.674 313.195 197.282 314.079 199.052C315.237 201.632 314.959 203.585 312.92 205.817C313.036 205.073 312.619 204.887 311.993 204.887C313.615 201.295 311.924 198.587 309.676 196.041C309.387 195.762 309.143 195.483 309.387 195.076Z" fill="#979797" fill-opacity="0.5"/>
</g>
<defs>
<clipPath id="clip0_2019_181">
<rect width="492" height="287" fill="white"/>
</clipPath>
</defs>
</svg>
