<svg width="24" height="24" viewBox="0 0 24 24" fill="none" xmlns="http://www.w3.org/2000/svg">
<g clip-path="url(#clip0_2011_5)">
<path fill-rule="evenodd" clip-rule="evenodd" d="M12.904 19.6842V22.8482C12.904 23.0701 12.7241 23.25 12.5022 23.25H11.4978C11.2759 23.25 11.096 23.0701 11.096 22.8482V19.6842C11.4939 19.7254 11.7952 19.746 12 19.746C12.2048 19.746 12.5061 19.7254 12.904 19.6842ZM18.0582 16.7797L20.2955 19.0171C20.4524 19.174 20.4524 19.4284 20.2955 19.5853L19.5853 20.2955C19.4284 20.4524 19.174 20.4524 19.0171 20.2955L16.7797 18.0582C17.0902 17.806 17.3179 17.6075 17.4627 17.4627C17.6075 17.3179 17.806 17.0902 18.0582 16.7797M5.9418 16.7797C6.19399 17.0902 6.39248 17.3179 6.53727 17.4627C6.68209 17.6075 6.90975 17.806 7.22026 18.0582L4.98294 20.2955C4.82604 20.4524 4.57161 20.4524 4.41474 20.2955L3.70446 19.5852C3.54756 19.4283 3.54756 19.1739 3.70446 19.017L5.9418 16.7797ZM12 6.12388C15.2453 6.12388 17.8761 8.7547 17.8761 12C17.8761 15.2453 15.2453 17.8761 12 17.8761C8.7547 17.8761 6.12388 15.2453 6.12388 12C6.12388 8.7547 8.7547 6.12388 12 6.12388ZM12 7.93192C9.75326 7.93192 7.93192 9.75326 7.93192 12C7.93192 14.2467 9.75326 16.0681 12 16.0681C14.2467 16.0681 16.0681 14.2467 16.0681 12C16.0681 9.75326 14.2467 7.93192 12 7.93192ZM4.31585 11.096C4.27459 11.4939 4.25397 11.7952 4.25397 12C4.25397 12.2048 4.27459 12.5061 4.31585 12.904H1.15179C0.929874 12.904 0.75 12.7241 0.75 12.5022V11.4978C0.75 11.2759 0.929874 11.096 1.15179 11.096H4.31585ZM22.8482 11.096C23.0701 11.096 23.25 11.2759 23.25 11.4978V12.5022C23.25 12.7241 23.0701 12.904 22.8482 12.904H19.6842C19.7254 12.5061 19.746 12.2048 19.746 12C19.746 11.7952 19.7254 11.4939 19.6842 11.096H22.8482ZM19.5853 3.67934L20.2955 4.38963C20.4524 4.54652 20.4524 4.80093 20.2955 4.95783L18.0582 7.19515C17.806 6.88464 17.6075 6.65698 17.4627 6.51216C17.3179 6.36737 17.0902 6.16888 16.7797 5.91669L19.017 3.67934C19.1739 3.52245 19.4284 3.52245 19.5852 3.67934M4.98291 3.67934L7.22023 5.91669C6.90973 6.16888 6.68206 6.36737 6.53725 6.51216C6.39245 6.65698 6.19397 6.88464 5.94177 7.19515L3.70443 4.95783C3.54753 4.80093 3.54753 4.5465 3.70443 4.38963L4.41471 3.67934C4.57161 3.52245 4.82602 3.52245 4.98291 3.67934ZM12.5022 0.75C12.7241 0.75 12.904 0.929874 12.904 1.15179V4.31585C12.5061 4.27459 12.2048 4.25397 12 4.25397C11.7952 4.25397 11.4939 4.27459 11.096 4.31585V1.15179C11.096 0.929874 11.2759 0.75 11.4978 0.75H12.5022Z" fill="black"/>
</g>
<defs>
<clipPath id="clip0_2011_5">
<rect width="24" height="24" fill="white"/>
</clipPath>
</defs>
</svg>
