<svg width="31" height="44" viewBox="0 0 31 44" fill="none" xmlns="http://www.w3.org/2000/svg">
<path d="M3.44363 25.9326L1.19768 27.5603L3.44363 28.3918V25.9326ZM4.01348 25.0418V29.2105L0 27.7246L3.40488 25.2569L4.01348 25.0418Z" fill="black"/>
<path d="M5.91826 24.544L4.01768 25.5629L4.06839 29.6789L5.91826 24.544ZM6.19605 23.7485L6.8023 23.7714L3.962 31.6555H3.52284L3.4436 25.2241L6.19605 23.7485Z" fill="black"/>
<path d="M6.60868 24.3233L4.09354 31.3509V36.8768H8.57452L13.3028 24.3233H6.60868ZM6.20738 23.7535H14.1264L8.96882 37.4466H3.52368V31.252L6.20738 23.7535Z" fill="black"/>
<path d="M5.14208 37.5665L6.16586 41.7951L7.52943 37.5665H5.14208ZM4.34668 36.9966H7.98913L8.19312 37.3651L6.08774 43.8942L4.48817 37.2873L4.34668 36.9966Z" fill="black"/>
<path d="M12.4197 28.33L10.7433 32.7122L16.0397 33.8664L12.4197 28.33ZM12.2861 27.0844L17.2784 34.7195L9.97412 33.1278L12.2861 27.0844Z" fill="black"/>
<path d="M21.1908 23.6279L13.9165 24.3153L12.6603 27.7192L16.8854 34.0436L21.9939 36.8297L21.1908 23.6279ZM21.7238 23.0051L22.6252 37.8231L16.4895 34.4767L12.0251 27.7943L13.5059 23.7817L21.7238 23.0051Z" fill="black"/>
<path d="M21.0205 36.9819L22.1784 40.008L22.0006 37.5272L21.0205 36.9819ZM20.3365 35.9493L22.547 37.179L22.8952 42.0399L22.2978 41.9147L20.1829 36.3874L20.3365 35.9493Z" fill="black"/>
<path d="M22.8391 41.188L27.6627 27.8149L28.4008 18.4106L25.1437 9.77891L22.3519 5.23526L20.5875 4.86986L22.6135 37.2904L22.6136 37.2917L22.6136 37.293L22.8391 41.188ZM22.431 43.999L22.0447 37.3259L20.0076 4.72717L20.229 4.21368L22.7086 4.72717L25.6577 9.52689L28.9788 18.3284L28.2248 27.936L22.431 43.999Z" fill="black"/>
<path d="M28.8695 19.3732L28.3643 26.0969L30.0891 21.8421L28.8695 19.3732ZM28.4574 17.2523L30.7133 21.8191L27.5229 29.6895L28.4574 17.2523Z" fill="black"/>
<path d="M27.9965 4.16575L23.1118 5.3869L25.3382 8.98324L29.0783 5.3018L27.9965 4.16575ZM28.1803 3.53241L29.8775 5.31473L25.2293 9.89L22.2166 5.02332L28.1803 3.53241Z" fill="black"/>
<path d="M22.7849 1.31741L21.5531 2.2707L20.7667 4.30522L22.2916 4.65117L22.7849 1.31741ZM23.5558 0.00012207L22.7653 5.34297L19.9973 4.71501L21.0788 1.91719L23.5558 0.00012207Z" fill="black"/>
</svg>
